#!OML:ASF E:\CV Data\Top Level 1\Subject 1\Session 1\player.ASF
:FULLY-SPECIFIED
:DEGREES
1106
root 1.88915 17.3334 4.93998 21.4815 34.7797 -4.96619
lowerback 17.7574 9.0761 11.2189
upperback 1.41538 14.8481 7.06459
thorax -7.38344 6.91462 -1.85859
lowerneck 4.55099 -19.8976 -15.98
upperneck -25.2009 -24.2525 28.011
head -2.28241 -13.2018 10.9299
rclavicle -1.145e-013 2.8625e-014
rhumerus 208.836 442.657 466.365
rradius 71.4591
rwrist 1.45369
rhand -23.9893 25.3742
rfingers 7.12502
rthumb 2.48765 -4.591
lclavicle -1.145e-013 2.8625e-014
lhumerus -45.8615 4.39049 79.1953
lradius 81.9798
lwrist -19.1973
lhand -35.3769 14.3923
lfingers 7.12502
lthumb -8.50848 44.2009
rfemur 4.19812 -8.00367 16.7827
rtibia 52.941
rfoot 10.6959 -9.31149
rtoes 3.68105
lfemur -51.4598 -6.62081 -20.6993
ltibia 29.6504
lfoot 1.38556 -26.7326
ltoes 18.4943
1107
root 1.84497 17.352 4.98941 21.2344 35.1456 -5.22674
lowerback 17.7619 8.91714 10.9411
upperback 1.42908 14.5713 6.91506
thorax -7.41828 6.7881 -1.82877
lowerneck 4.64863 -19.8994 -16.0151
upperneck -25.1293 -24.2317 28.4224
head -2.2014 -13.2295 11.0528
rclavicle 5.88403e-014 4.77083e-014
rhumerus 222.89 443.259 481.995
rradius 71.5956
rwrist -0.026193
rhand -25.3466 26.3414
rfingers 7.12502
rthumb 1.17677 -3.63507
lclavicle 5.88403e-014 4.77083e-014
lhumerus -45.7467 3.90253 79.5257
lradius 80.5467
lwrist -19.0664
lhand -36.3495 12.7527
lfingers 7.12502
lthumb -9.44707 42.521
rfemur 3.9 -7.37156 16.3594
rtibia 53.0701
rfoot 10.4126 -10.1708
rtoes 4.34857
lfemur -51.1938 -6.7251 -20.1696
ltibia 29.4433
lfoot 1.31834 -26.7447
ltoes 18.2141
1108
root 1.80083 17.3706 5.03716 20.9738 35.5362 -5.47333
lowerback 17.7733 8.73645 10.6626
upperback 1.44396 14.269 6.7825
thorax -7.4618 6.6491 -1.77629
lowerneck 4.72069 -19.8929 -16.0747
upperneck -25.0512 -24.201 28.8345
head -2.11287 -13.2488 11.177
rclavicle -3.81667e-014 -9.22361e-014
rhumerus 240.353 443.539 501.073
rradius 71.5423
rwrist -2.16367
rhand -26.5182 27.6386
rfingers 7.12502
rthumb 0.0452501 -2.34113
lclavicle -3.81667e-014 -9.22361e-014
lhumerus -45.5664 3.41455 79.8232
lradius 78.9858
lwrist -18.4044
lhand -36.9494 11.4053
lfingers 7.12502
lthumb -10.0258 41.1465
rfemur 3.59724 -6.81536 15.9268
rtibia 53.2002
rfoot 10.1262 -11.0819
rtoes 5.16067
lfemur -50.9042 -6.84464 -19.6632
ltibia 29.2187
lfoot 1.26562 -26.7795
ltoes 17.9507
1109
root 1.7647 17.4127 5.0884 20.7062 35.9498 -5.71046
lowerback 17.7902 8.52966 10.391
upperback 1.44742 13.9373 6.65947
thorax -7.52324 6.4946 -1.71234
lowerneck 4.77871 -19.8707 -16.1519
upperneck -24.9509 -24.1542 29.2394
head -2.01774 -13.2565 11.301
rclavicle 2.2741e-013 5.08889e-014
rhumerus 259.406 443.27 521.747
rradius 71.3004
rwrist -4.74858
rhand -27.3943 29.1494
rfingers 7.12502
rthumb -0.800924 -0.828815
lclavicle 2.2741e-013 5.08889e-014
lhumerus -45.3659 2.92301 80.0864
lradius 77.3422
lwrist -17.4035
lhand -37.0609 10.0825
lfingers 7.12502
lthumb -10.1334 39.8184
rfemur 3.29948 -6.33465 15.4944
rtibia 53.2543
rfoot 9.89079 -12.0235
rtoes 6.05396
lfemur -50.5052 -6.99023 -19.174
ltibia 28.9328
lfoot 1.17363 -26.8114
ltoes 17.7032
1110
root 1.72099 17.4297 5.13186 20.4323 36.3797 -5.93679
lowerback 17.8127 8.2997 10.1261
upperback 1.44375 13.5794 6.54646
thorax -7.59746 6.32656 -1.63606
lowerneck 4.81887 -19.8345 -16.2609
upperneck -24.8221 -24.095 29.6441
head -1.90968 -13.2538 11.4267
rclavicle -3.49861e-014 -3.81667e-014
rhumerus 277.129 442.364 541.091
rradius 70.8318
rwrist -7.34174
rhand -27.904 30.5921
rfingers 7.12502
rthumb -1.29319 0.616266
lclavicle -3.49861e-014 -3.81667e-014
lhumerus -45.1552 2.44745 80.3226
lradius 75.693
lwrist -16.1363
lhand -36.4269 8.34724
lfingers 7.12502
lthumb -9.52175 38.1121
rfemur 2.97936 -5.92489 15.0484
rtibia 53.3831
rfoot 9.58651 -12.9464
rtoes 7.03357
lfemur -50.2013 -7.14793 -18.7017
ltibia 28.6822
lfoot 1.16223 -26.8678
ltoes 17.4842
1111
root 1.67765 17.4459 5.17319 20.1508 36.8159 -6.16261
lowerback 17.8433 8.05243 9.88266
upperback 1.42805 13.2055 6.43617
thorax -7.68506 6.14913 -1.56465
lowerneck 4.83997 -19.7903 -16.3981
upperneck -24.6528 -24.0342 30.044
head -1.7843 -13.2453 11.5493
rclavicle 1.94014e-013 2.54444e-014
rhumerus 291.594 440.874 557.16
rradius 70.0604
rwrist -9.51975
rhand -28.1478 31.6218
rfingers 7.12502
rthumb -1.52868 1.6475
lclavicle 1.94014e-013 2.54444e-014
lhumerus -44.9482 1.98865 80.5269
lradius 74.0619
lwrist -14.7205
lhand -34.9927 6.23059
lfingers 7.12502
lthumb -8.13771 36.0539
rfemur 2.64082 -5.57221 14.6014
rtibia 53.5116
rfoot 9.27779 -13.8372
rtoes 8.00843
lfemur -49.8998 -7.3185 -18.2361
ltibia 28.4284
lfoot 1.1647 -26.9242
ltoes 17.2693
1112
root 1.63494 17.4614 5.21278 19.8585 37.2378 -6.39195
lowerback 17.8771 7.7964 9.65803
upperback 1.40653 12.8245 6.32634
thorax -7.77608 5.96733 -1.49944
lowerneck 4.83687 -19.7425 -16.5633
upperneck -24.4379 -23.9784 30.4396
head -1.63799 -13.2338 11.6667
rclavicle -2.22639e-014 5.08889e-014
rhumerus 302.856 438.88 569.989
rradius 68.9061
rwrist -10.84
rhand -28.2778 31.9271
rfingers 7.12502
rthumb -1.65425 1.95375
lclavicle -2.22639e-014 5.08889e-014
lhumerus -44.7456 1.53575 80.7136
lradius 72.4506
lwrist -13.2876
lhand -32.8045 4.31618
lfingers 7.12502
lthumb -6.02546 34.2105
rfemur 2.26114 -5.25851 14.1518
rtibia 53.6961
rfoot 8.9354 -14.662
rtoes 8.95192
lfemur -49.6626 -7.48131 -17.7812
ltibia 28.3093
lfoot 1.10003 -26.9667
ltoes 17.0637
